<svg id="Layer_1" data-name="Layer 1" xmlns="http://www.w3.org/2000/svg" xmlns:xlink="http://www.w3.org/1999/xlink" viewBox="0 0 801.87 366.91"><defs><style>.cls-1{fill:none;}.cls-2{clip-path:url(#clip-path);}.cls-3{fill:#1e5d9f;}.cls-4{clip-path:url(#clip-path-2);}.cls-5{fill:url(#linear-gradient);}</style><clipPath id="clip-path" transform="translate(0 0)"><rect class="cls-1" width="801.87" height="366.91"/></clipPath><clipPath id="clip-path-2" transform="translate(0 0)"><path class="cls-1" d="M114.13,0c-4,4.77-8.37,10.22-13,16.3C81.52,42.07,62.42,75.8,48.7,101.63s-34.12,76.91-37.13,85.72c-2.1,6.17-10.51,28.78-11.5,45,0,.73-.07,1.47-.07,2.21v.12c0,15.89,9.93,36.18,30.36,45.3,21.43,9.58,53,9.21,64.14,9s35.93-1.22,58.63-3.11,86-6.77,102.55-8.71c14.18-1.69,79-6.22,128.77-10s142.88-6.95,161.15-8c14.76-.85,117.25-4.47,149.65-4.82s102.14,6.61,102.14,6.61l4.48-8.52c-2-8-22-12.52-47.3-15.93s-90.1-3-134.57-1.85c-85.13,2.22-138.76,5.8-251,12.07s-131.12,9.68-175.93,13.78-75.15,8.9-121.39,9.15-48.37-31.26-48.31-39.2,10.08-51.77,31.84-90.2C78.46,99.19,104.4,54.6,111.55,42.57s16.09-25.8,16.09-25.8-3,3.51-5.64,6.15-4.42-.66-.85-6.49c3-4.91,6.33-10.82,9.36-16.43Z"/></clipPath><linearGradient id="linear-gradient" x1="-555.41" y1="1139.46" x2="-551.44" y2="1139.46" gradientTransform="translate(112171.33 -229981.72) scale(201.96)" gradientUnits="userSpaceOnUse"><stop offset="0" stop-color="#005799"/><stop offset="0.14" stop-color="#005799"/><stop offset="0.24" stop-color="#5db2e4"/><stop offset="0.28" stop-color="#f4d7c7"/><stop offset="0.3" stop-color="#e7ad91"/><stop offset="0.35" stop-color="#e73a3f"/><stop offset="1" stop-color="#e73a3f"/></linearGradient></defs><g class="cls-2"><path class="cls-3" d="M196.25,114.81c2.52-16.2-2.93-18.13-7.66-18.83-8.25-1.58-15.27,8.07-20.46,38.73-7,32.74-4.81,39.35,5.54,41.28,9.58,0,12.58-7.26,15.1-20.52l22-.42-.47,4.22c-5.06,23.77-17.14,34.09-40.48,33.56-36.15-4.91-30.92-30.84-23.86-64,6-28.26,10-50.53,42.11-49.48,19.13.7,33.52,7.54,30.36,31.76l-.18,3.69Z" transform="translate(0 0)"/><polygon class="cls-3" points="237.02 81.14 260.19 80.82 241.22 173.29 275.12 173.29 270.65 191.08 213.59 191.4 237.02 81.14"/><polygon class="cls-3" points="382.02 135.03 368.92 80.82 393.72 80.82 400.81 117.69 401.12 117.69 422.48 80.82 448 80.82 411.97 135.03 425.98 191.08 400.71 191.08 393.72 153.65 371.7 191.08 344.99 191.08 382.02 135.03"/><path class="cls-3" d="M479.14,80.82h29.22l7.28,110.25H491l0-23.86-29.48-.12-10.79,24H427.6Zm10,21.83h-.31L468.12,150h22.46Z" transform="translate(0 0)"/><polygon class="cls-3" points="542.76 80.82 572.57 80.82 585.11 162.53 601.48 80.82 623.01 80.82 599.58 191.08 567.76 191.08 556.56 112.01 556.25 112.01 540.62 191.08 519.33 191.08 542.76 80.82"/><polygon class="cls-3" points="636.11 80.82 696.47 80.82 692.73 98.91 655.79 98.91 651.1 123.91 684.58 123.91 681.5 141.49 646.64 141.49 641.28 173.29 677.76 173.29 674.92 191.08 613.15 191.08 636.11 80.82"/><polygon class="cls-3" points="301.1 80.82 361.46 80.82 357.72 98.91 320.78 98.91 316.09 123.91 349.57 123.91 346.49 141.49 311.62 141.49 306.28 173.29 342.74 173.29 339.9 191.08 278.14 191.08 301.1 80.82"/><path class="cls-3" d="M711.06,80.46a9.36,9.36,0,1,1-9.3,9.34,9.21,9.21,0,0,1,9.3-9.34Zm0,1.46a7.92,7.92,0,1,0,7.51,7.92A7.69,7.69,0,0,0,711,81.92Zm-1.75,13.32h-1.66V84.82a18.16,18.16,0,0,1,2.95-.25,5.47,5.47,0,0,1,3.24.79,2.49,2.49,0,0,1,1,2.15,2.58,2.58,0,0,1-2,2.53v.09c.91.17,1.54,1,1.74,2.53a8.54,8.54,0,0,0,.67,2.58h-1.75a7.84,7.84,0,0,1-.7-2.66,2,2,0,0,0-2.25-1.83h-1.16Zm0-5.78h1.21c1.37,0,2.53-.49,2.53-1.78,0-.91-.66-1.82-2.53-1.82a8.5,8.5,0,0,0-1.21.08Z" transform="translate(0 0)"/></g><g class="cls-4"><rect class="cls-5" width="801.87" height="289.54"/></g><g class="cls-2"><path class="cls-3" d="M318.66,323.12c1.33-6.22,2.89-10,7.41-10,3.83,0,3.94,3.49,2.57,10Zm21.57,8c3.32-15.67,4.44-26.5-12.7-26.5-15,0-20.78,9.63-23.54,22.58-2.91,13.72-4.13,25.9,13.24,25.9,11.42,0,18.81-5.54,21.5-17H326c-1.57,5.8-3.24,8.44-6.82,8.44-4,0-4.29-3.5-2.77-10.65l.6-2.81Z" transform="translate(0 0)"/><path class="cls-3" d="M351.05,305.82h13.29l-1.16,5.46h.18a15.11,15.11,0,0,1,12.47-6.65c7.85,0,11.19,3.92,9.3,12.78l-7.33,34.51H364l6.68-31.44c.71-3.32-.33-5.29-2.87-5.29s-5.39,2.05-6.34,6.56l-6.41,30.17h-13.8Z" transform="translate(0 0)"/><path class="cls-3" d="M413,328.91c-2.41,11.34-4.08,15.17-8.34,15.17-4.08,0-4.43-4-2-15.25s4.42-15.16,8.51-15.16c4.26,0,4.29,3.83,1.87,15.24m-10.34,24.2c15.93,0,21.24-10.56,24.17-24.37s3-24.11-13.87-24.11c-15.93,0-21.24,10.57-24.18,24.36s-3,24.12,13.88,24.12" transform="translate(0 0)"/><polygon class="cls-3" points="441.98 328.06 435.13 305.83 448.93 305.83 451.47 319.54 460 305.83 473.81 305.83 457.58 328.06 464.86 351.92 451.06 351.92 448.01 337.01 438.36 351.92 424.56 351.92 441.98 328.06"/><path class="cls-3" d="M483.81,337.69a7.33,7.33,0,0,1,3.22-5.12c1.5-1,3.39-1.1,8.22-3.4-.39,1.88-1,4.26-1.8,8.09-1,4.6-4,6.3-6.88,6.3-2.56,0-3.53-2.21-2.76-5.87m4-17.73c.93-4,2.53-6.29,6.37-6.29,3.06,0,4,1.78,3.36,4.59-.74,3.49-1.65,4.18-6.07,5.29-4.05,1-9.34,1.87-13.15,3.75s-7,6.39-8.12,11.75c-2.12,10,1.53,14.06,9.28,14.06a15,15,0,0,0,12.2-6.48h.17a21,21,0,0,0-.36,5.29h13.29c-1.18-2-.23-6.47.51-10l5-23.68c2.07-9.71-2.13-13.63-13.46-13.63-5.71,0-9.8.77-13.5,3s-6.4,6.05-7.82,12.34Z" transform="translate(0 0)"/><path class="cls-3" d="M530.14,328.57c1.9-8.94,3.81-13.89,7.89-13.89,5.2,0,3.87,7.08,2.29,14.49-1.77,8.35-3.2,13.88-8.23,13.88-4.68,0-3.69-6.3-2-14.48m-21.7,38.34h13.81l4.25-20h.18c1.24,4.95,5.15,6.22,9,6.22,11.33,0,15.57-10.31,18.61-24.62,3.66-17.22.13-23.86-9.15-23.86a12.62,12.62,0,0,0-11.43,6.82h-.17l1.2-5.62H521.43Z" transform="translate(0 0)"/><path class="cls-3" d="M570.62,337.69a7.29,7.29,0,0,1,3.21-5.12c1.5-1,3.39-1.1,8.22-3.4-.4,1.88-1,4.26-1.8,8.09-1,4.6-4,6.3-6.88,6.3-2.56,0-3.53-2.21-2.75-5.87m4-17.73c.93-4,2.53-6.29,6.37-6.29,3.06,0,4,1.78,3.37,4.59-.75,3.49-1.66,4.18-6.07,5.29-4,1-9.35,1.87-13.15,3.75s-7,6.39-8.13,11.75c-2.11,10,1.53,14.06,9.28,14.06a15,15,0,0,0,12.2-6.48h.17a20.54,20.54,0,0,0-.35,5.29h13.29c-1.19-2-.25-6.47.49-10l5-23.68c2.06-9.71-2.14-13.63-13.47-13.63-5.71,0-9.79.77-13.49,3s-6.41,6.05-7.83,12.34Z" transform="translate(0 0)"/><path class="cls-3" d="M608.23,305.82h13.29l-1.38,6.48h.18c2.65-4.09,6.91-7.67,12.7-7.67a10,10,0,0,1,2.18.17l-2.76,12.95a18.69,18.69,0,0,0-3.75-.34c-5.54,0-9.61,2.3-10.89,8.35l-5.56,26.16H598.43Z" transform="translate(0 0)"/><path class="cls-3" d="M640.09,305.82h13.8l-9.8,46.1h-13.8Zm3.27-15.41h13.81L654.91,301H641.12Z" transform="translate(0 0)"/><path class="cls-3" d="M661.87,305.82h13.29L674,311.28h.17a15.13,15.13,0,0,1,12.49-6.65c7.83,0,11.18,3.92,9.29,12.78l-7.32,34.51H674.83l6.68-31.44c.71-3.32-.32-5.29-2.88-5.29s-5.37,2.05-6.34,6.56l-6.41,30.17h-13.8Z" transform="translate(0 0)"/></g></svg>